<svg width="52" height="26" viewBox="0 0 52 26" fill="none" xmlns="http://www.w3.org/2000/svg">
<path d="M51 25L44.5835 18.6202C44.2634 18.302 43.7698 18.2376 43.3788 18.4631L40.7715 19.9669C40.2979 20.2401 39.6927 20.0823 39.4128 19.6127L37.2873 16.0463C37.0246 15.6056 36.4709 15.4352 36.0058 15.6519L35.2089 16.0234C34.7948 16.2163 34.3026 16.1042 34.013 15.7508L32.2672 13.6204C31.9689 13.2565 31.4047 13.2816 31.1398 13.6704V13.6704C30.8841 14.0458 30.3452 14.0847 30.0381 13.7499L29.0035 12.6215C28.541 12.1172 27.7201 12.2158 27.3903 12.8153L26.5155 14.4054L25.4399 16.9619C25.1959 17.5419 24.4833 17.7551 23.9609 17.4045L23.1144 16.8364C22.7001 16.5583 22.1442 16.6282 21.8117 17.0002L21.0051 17.9025C20.5478 18.4139 19.723 18.3236 19.3874 17.7252L18.1089 15.4461C18.0438 15.33 17.9563 15.2282 17.8513 15.1464L14.9606 12.8946C14.6259 12.6339 14.1632 12.6127 13.8061 12.8418L11.1089 14.5721C10.5581 14.9254 9.82202 14.6633 9.61852 14.0414L6.63783 4.93225C6.50334 4.52123 6.11988 4.24324 5.68742 4.24324H4.52098C4.24752 4.24324 3.986 4.13126 3.79728 3.93336L1 1" stroke="#E96D6D"/>
</svg>
