<svg width="17" height="17" viewBox="0 0 17 17" fill="none" xmlns="http://www.w3.org/2000/svg">
<path d="M9.20003 11.3335H7.94672C7.06005 11.3335 6.33337 10.5868 6.33337 9.66682C6.33337 9.39349 6.56004 9.16682 6.83337 9.16682C7.10671 9.16682 7.33337 9.39349 7.33337 9.66682C7.33337 10.0335 7.60672 10.3335 7.94672 10.3335H9.20003C9.46003 10.3335 9.66671 10.1002 9.66671 9.81349C9.66671 9.45349 9.56671 9.40015 9.34005 9.32015L7.33337 8.62015C6.90671 8.46681 6.33337 8.16016 6.33337 7.18016C6.33337 6.34682 6.99338 5.66016 7.80005 5.66016H9.05337C9.94003 5.66016 10.6667 6.40682 10.6667 7.32682C10.6667 7.60016 10.44 7.82682 10.1667 7.82682C9.89337 7.82682 9.66671 7.60016 9.66671 7.32682C9.66671 6.96016 9.39337 6.66016 9.05337 6.66016H7.80005C7.54005 6.66016 7.33337 6.89349 7.33337 7.18016C7.33337 7.54016 7.43337 7.59348 7.66003 7.67348L9.66671 8.37348C10.0934 8.52682 10.6667 8.83349 10.6667 9.81349C10.6667 10.6535 10.0067 11.3335 9.20003 11.3335Z" fill="white"/>
<path d="M8.5 12C8.22667 12 8 11.7733 8 11.5V5.5C8 5.22667 8.22667 5 8.5 5C8.77333 5 9 5.22667 9 5.5V11.5C9 11.7733 8.77333 12 8.5 12Z" fill="white"/>
<path d="M8.50004 15.6668C4.54671 15.6668 1.33337 12.4535 1.33337 8.50016C1.33337 4.54683 4.54671 1.3335 8.50004 1.3335C8.77337 1.3335 9.00004 1.56016 9.00004 1.8335C9.00004 2.10683 8.77337 2.3335 8.50004 2.3335C5.10004 2.3335 2.33337 5.10016 2.33337 8.50016C2.33337 11.9002 5.10004 14.6668 8.50004 14.6668C11.9 14.6668 14.6667 11.9002 14.6667 8.50016C14.6667 8.22683 14.8934 8.00016 15.1667 8.00016C15.44 8.00016 15.6667 8.22683 15.6667 8.50016C15.6667 12.4535 12.4534 15.6668 8.50004 15.6668Z" fill="white"/>
<path d="M15.1667 5.00016C14.8933 5.00016 14.6667 4.7735 14.6667 4.50016V2.3335H12.5C12.2267 2.3335 12 2.10683 12 1.8335C12 1.56016 12.2267 1.3335 12.5 1.3335H15.1667C15.44 1.3335 15.6667 1.56016 15.6667 1.8335V4.50016C15.6667 4.7735 15.44 5.00016 15.1667 5.00016Z" fill="white"/>
<path d="M11.8333 5.66663C11.7066 5.66663 11.58 5.61996 11.48 5.51996C11.2866 5.32663 11.2866 5.00663 11.48 4.81329L14.8133 1.47996C15.0066 1.28663 15.3266 1.28663 15.52 1.47996C15.7133 1.67329 15.7133 1.99329 15.52 2.18663L12.1866 5.51996C12.0866 5.61996 11.96 5.66663 11.8333 5.66663Z" fill="white"/>
</svg>
