<svg width="25" height="17" viewBox="0 0 25 17" fill="none" xmlns="http://www.w3.org/2000/svg">
<path d="M1 15.9097L3.5895 12.4115C3.92449 11.9589 4.56688 11.872 5.01006 12.2193L5.08323 12.2767C5.59736 12.6796 6.35342 12.4894 6.6158 11.8913L7.25049 10.4444C7.3926 10.1204 7.78985 9.99908 8.08873 10.1883V10.1883C8.36249 10.3617 8.72526 10.2761 8.89262 9.99861L9.61039 8.80858C9.73252 8.6061 10.0299 8.6177 10.1359 8.82909V8.82909C10.2388 9.03438 10.5247 9.05284 10.6532 8.86249L10.9309 8.45091C11.1955 8.05892 11.7905 8.1213 11.9679 8.55963L12.2629 9.28805L12.7021 10.7065C12.8287 11.1155 13.3377 11.2539 13.6541 10.9654V10.9654C13.9195 10.7233 14.3385 10.7759 14.536 11.076L14.5681 11.1248C14.848 11.5502 15.4898 11.4889 15.6841 11.0182L16.1047 9.9994C16.1514 9.88648 16.2183 9.78306 16.3022 9.69425L17.1753 8.77013C17.5439 8.38002 18.1547 8.35042 18.5592 8.70306L18.6074 8.74501C19.1733 9.23834 20.0608 8.95525 20.2366 8.22531L21.3598 3.56163C21.4481 3.19505 21.776 2.93669 22.1531 2.93669V2.93669C22.419 2.93669 22.6683 2.80713 22.821 2.58947L24 0.909668" stroke="#089775"/>
</svg>
